<svg xmlns="http://www.w3.org/2000/svg" viewBox="0 0 512 512"><defs><filter id="sh" x="-50%" y="-50%" width="200%" height="200%"><feGaussianBlur stdDeviation="12"/></filter></defs><rect width="512" height="512" rx="112" fill="#2a3140"/><path d="M116.04 271L395.96 271L468 421L44 421Z" fill="#7ee3ff" fill-opacity="0.35"/><path d="M116.04 271L44 421" stroke="#ffffff" stroke-width="10" stroke-linecap="round" stroke-linejoin="round" stroke-dasharray="26 20" fill="none"/><path d="M395.96 271L468 421" stroke="#ffffff" stroke-width="10" stroke-linecap="round" stroke-linejoin="round" stroke-dasharray="26 20" fill="none"/><path d="M44 421L468 421" stroke="#ffffff" stroke-width="10" stroke-linecap="round" stroke-linejoin="round" stroke-dasharray="26 20" fill="none"/><path d="M116.04 271L395.96 271" stroke="#ffffff" stroke-width="10" stroke-linecap="round" stroke-linejoin="round" stroke-dasharray="26 20" fill="none"/><ellipse cx="256" cy="364" rx="151.96" ry="24" fill="#000000" opacity="0.7" filter="url(#sh)"/><path d="M321.899 305.093L321.899 312.067Q321.899 318.761 319.598 326.432Q317.297 334.103 312.067 340.658Q306.836 347.213 298.468 351.606Q290.1 356 277.966 356L277.966 356L140.31 356Q136.405 356 133.058 354.605Q129.711 353.21 127.27 350.769Q124.829 348.329 123.435 344.981Q122.04 341.634 122.04 337.729L122.04 337.729L122.04 174.271Q122.04 170.506 123.435 167.158Q124.829 163.811 127.27 161.301Q129.711 158.79 133.058 157.396Q136.405 156.001 140.31 156.001L140.31 156.001L261.648 156.001Q268.343 156.001 276.014 158.372Q283.685 160.743 290.309 165.973Q296.934 171.203 301.327 179.571Q305.721 187.939 305.721 200.073L305.721 200.073L305.721 206.907Q305.721 216.53 302.513 227.618Q299.305 238.706 292.192 248.608L292.192 248.608Q298.329 252.374 303.698 257.674Q309.068 262.974 313.113 269.947Q317.157 276.921 319.528 285.707Q321.899 294.494 321.899 305.093L321.899 305.093M285.637 311.788L285.637 305.093Q285.637 297.98 283.406 292.332Q281.174 286.683 277.13 282.639Q273.085 278.594 267.367 276.432Q261.648 274.271 254.536 274.271L254.536 274.271L172.807 274.271L172.807 237.73L238.218 237.73Q245.331 237.73 251.049 235.568Q256.767 233.406 260.812 229.362Q264.856 225.317 267.018 219.668Q269.18 214.02 269.18 206.907L269.18 206.907L269.18 200.073Q269.18 192.263 261.648 192.263L261.648 192.263L158.302 192.263L158.302 319.738L277.966 319.738Q278.943 319.738 280.337 319.598Q281.732 319.459 282.848 318.761Q283.963 318.064 284.8 316.39Q285.637 314.717 285.637 311.788L285.637 311.788M389.96 156.001L389.96 356L353.698 356L353.698 156.001L389.96 156.001" fill="#22d3c5"/></svg>