<svg xmlns="http://www.w3.org/2000/svg" viewBox="0 0 1200 420">
  <rect x="40" y="40" width="1120" height="340" rx="44" ry="44" fill="none" stroke="#ffffff" stroke-width="7" stroke-linecap="round" stroke-dasharray="24 18"/>
  <path d="M254.687 177.258L254.687 180.562Q254.687 183.734 253.597 187.368Q252.507 191.002 250.029 194.108Q247.551 197.213 243.586 199.295Q239.622 201.376 233.873 201.376L233.873 201.376L168.656 201.376Q166.806 201.376 165.22 200.715Q163.635 200.054 162.478 198.898Q161.322 197.742 160.661 196.156Q160 194.57 160 192.72L160 192.72L160 115.279Q160 113.495 160.661 111.909Q161.322 110.323 162.478 109.134Q163.635 107.945 165.22 107.284Q166.806 106.623 168.656 106.623L168.656 106.623L226.142 106.623Q229.314 106.623 232.948 107.746Q236.582 108.87 239.721 111.347Q242.86 113.825 244.941 117.79Q247.022 121.754 247.022 127.503L247.022 127.503L247.022 130.741Q247.022 135.3 245.503 140.553Q243.983 145.806 240.613 150.497L240.613 150.497Q243.52 152.282 246.064 154.792Q248.608 157.303 250.524 160.607Q252.441 163.911 253.564 168.074Q254.687 172.236 254.687 177.258L254.687 177.258M237.507 180.43L237.507 177.258Q237.507 173.888 236.45 171.212Q235.393 168.536 233.477 166.62Q231.561 164.704 228.851 163.68Q226.142 162.655 222.773 162.655L222.773 162.655L184.052 162.655L184.052 145.344L215.042 145.344Q218.411 145.344 221.121 144.319Q223.83 143.295 225.746 141.379Q227.662 139.463 228.686 136.787Q229.71 134.111 229.71 130.741L229.71 130.741L229.71 127.503Q229.71 123.803 226.142 123.803L226.142 123.803L177.18 123.803L177.18 184.196L233.873 184.196Q234.336 184.196 234.997 184.13Q235.657 184.064 236.186 183.734Q236.715 183.403 237.111 182.61Q237.507 181.818 237.507 180.43L237.507 180.43M369.065 144.947L369.065 163.052Q369.065 171.708 366.091 178.976Q363.118 186.245 357.832 191.531Q352.546 196.817 345.31 199.757Q338.075 202.698 329.551 202.698L329.551 202.698L306.293 202.698Q297.769 202.698 290.5 199.757Q283.232 196.817 277.946 191.531Q272.66 186.245 269.653 178.976Q266.647 171.708 266.647 163.052L266.647 163.052L266.647 144.947Q266.647 136.357 269.653 129.056Q272.66 121.754 277.946 116.501Q283.232 111.248 290.5 108.275Q297.769 105.302 306.293 105.302L306.293 105.302L329.551 105.302Q338.075 105.302 345.31 108.275Q352.546 111.248 357.832 116.501Q363.118 121.754 366.091 129.056Q369.065 136.357 369.065 144.947L369.065 144.947M351.885 163.052L351.885 144.947Q351.885 139.859 350.266 135.73Q348.647 131.6 345.707 128.659Q342.766 125.719 338.637 124.1Q334.507 122.481 329.551 122.481L329.551 122.481L306.293 122.481Q301.271 122.481 297.141 124.1Q293.011 125.719 290.038 128.659Q287.064 131.6 285.446 135.73Q283.827 139.859 283.827 144.947L283.827 144.947L283.827 163.052Q283.827 168.14 285.446 172.27Q287.064 176.399 290.038 179.34Q293.011 182.28 297.141 183.899Q301.271 185.518 306.293 185.518L306.293 185.518L329.419 185.518Q334.441 185.518 338.571 183.899Q342.7 182.28 345.674 179.34Q348.647 176.399 350.266 172.27Q351.885 168.14 351.885 163.052L351.885 163.052M478.883 106.623L478.883 192.72Q478.883 194.57 478.222 196.156Q477.562 197.742 476.372 198.898Q475.183 200.054 473.597 200.715Q472.011 201.376 470.227 201.376L470.227 201.376L431.507 201.376Q426.022 201.376 420.406 200.187Q414.789 198.997 409.536 196.519Q404.283 194.042 399.658 190.209Q395.033 186.377 391.564 181.124Q388.095 175.871 386.112 169.098Q384.13 162.325 384.13 154L384.13 154L384.13 106.623L401.31 106.623L401.31 154Q401.31 161.268 403.325 166.29Q405.34 171.311 408.446 174.681Q411.552 178.051 415.252 179.967Q418.952 181.884 422.289 182.809Q425.626 183.734 428.17 183.965Q430.714 184.196 431.507 184.196L431.507 184.196L461.703 184.196L461.703 106.623L478.883 106.623M593.525 106.623L593.525 194.042Q593.525 195.892 592.831 197.478Q592.137 199.063 590.981 200.22Q589.825 201.376 588.239 202.037Q586.653 202.698 584.869 202.698L584.869 202.698Q583.283 202.698 581.664 202.103Q580.045 201.508 578.79 200.187L578.79 200.187L516.018 134.639L516.018 201.376L498.838 201.376L498.838 113.957Q498.838 111.314 500.325 109.167Q501.811 107.019 504.124 105.962L504.124 105.962Q506.569 104.971 509.146 105.467Q511.723 105.962 513.573 107.878L513.573 107.878L576.345 173.36L576.345 106.623L593.525 106.623M708.035 146.269L708.035 161.73Q708.035 170.386 705.028 177.655Q702.022 184.923 696.736 190.176Q691.449 195.429 684.181 198.403Q676.913 201.376 668.389 201.376L668.389 201.376L622.004 201.376Q620.153 201.376 618.568 200.715Q616.982 200.054 615.825 198.898Q614.669 197.742 614.008 196.156Q613.348 194.57 613.348 192.72L613.348 192.72L613.348 115.279Q613.348 113.495 614.008 111.909Q614.669 110.323 615.825 109.134Q616.982 107.945 618.568 107.284Q620.153 106.623 622.004 106.623L622.004 106.623L668.389 106.623Q676.913 106.623 684.181 109.596Q691.449 112.57 696.736 117.823Q702.022 123.076 705.028 130.377Q708.035 137.679 708.035 146.269L708.035 146.269M690.855 161.73L690.855 146.269Q690.855 141.247 689.236 137.084Q687.617 132.921 684.644 129.981Q681.67 127.041 677.54 125.422Q673.411 123.803 668.389 123.803L668.389 123.803L630.527 123.803L630.527 184.196L668.389 184.196Q673.411 184.196 677.54 182.577Q681.67 180.959 684.644 178.018Q687.617 175.078 689.236 170.948Q690.855 166.818 690.855 161.73L690.855 161.73M817.853 115.279L817.853 201.376L800.673 201.376L800.673 178.117L740.28 178.117L740.28 201.376L723.1 201.376L723.1 154Q723.1 143.626 726.668 134.904Q730.236 126.182 736.579 119.904Q742.923 113.627 751.579 110.125Q760.235 106.623 770.476 106.623L770.476 106.623L809.197 106.623Q810.981 106.623 812.567 107.284Q814.153 107.945 815.342 109.134Q816.531 110.323 817.192 111.909Q817.853 113.495 817.853 115.279L817.853 115.279M740.28 154L740.28 160.937L800.673 160.937L800.673 123.803L770.476 123.803Q769.683 123.803 767.14 124.034Q764.596 124.265 761.259 125.19Q757.922 126.115 754.222 128.032Q750.521 129.948 747.416 133.318Q744.31 136.688 742.295 141.742Q740.28 146.797 740.28 154L740.28 154M932.495 127.503L932.495 138.472Q932.495 144.352 931.041 148.978Q929.587 153.603 927.109 157.138Q924.632 160.673 921.394 163.184Q918.156 165.695 914.621 167.314Q911.086 168.933 907.485 169.66Q903.884 170.386 900.712 170.386L900.712 170.386L936.591 201.376L910.029 201.376L874.216 170.386L861.859 170.386L861.859 153.207L900.712 153.207Q903.95 152.942 906.626 151.852Q909.302 150.762 911.251 148.912Q913.2 147.062 914.258 144.452Q915.315 141.842 915.315 138.472L915.315 138.472L915.315 127.635Q915.315 126.182 914.951 125.422Q914.588 124.662 914.026 124.298Q913.465 123.935 912.837 123.869Q912.209 123.803 911.681 123.803L911.681 123.803L854.988 123.803L854.988 201.376L837.808 201.376L837.808 115.279Q837.808 113.495 838.469 111.909Q839.129 110.323 840.286 109.134Q841.442 107.945 843.028 107.284Q844.614 106.623 846.464 106.623L846.464 106.623L911.681 106.623Q917.429 106.623 921.394 108.704Q925.358 110.786 927.836 113.924Q930.314 117.063 931.404 120.697Q932.495 124.331 932.495 127.503L932.495 127.503M1040 106.623L1040 138.34Q1040 144.22 1038.514 148.846Q1037.027 153.471 1034.582 157.006Q1032.137 160.541 1028.866 163.052Q1025.596 165.563 1022.094 167.182Q1018.592 168.801 1014.991 169.527Q1011.389 170.254 1008.218 170.254L1008.218 170.254L1001.28 170.254L1001.28 201.376L983.968 201.376L983.968 170.254L977.096 170.254Q973.924 170.254 970.323 169.527Q966.722 168.801 963.187 167.182Q959.652 165.563 956.414 163.052Q953.176 160.541 950.699 157.006Q948.221 153.471 946.734 148.813Q945.247 144.154 945.247 138.34L945.247 138.34L945.247 106.623L962.427 106.623L962.427 138.34Q962.427 141.709 963.484 144.385Q964.542 147.062 966.458 148.978Q968.374 150.894 971.116 151.918Q973.858 152.942 977.228 152.942L977.228 152.942L1008.218 152.942Q1010.663 152.546 1013.24 151.918Q1015.816 151.29 1017.931 149.771Q1020.045 148.251 1021.433 145.542Q1022.821 142.833 1022.821 138.34L1022.821 138.34L1022.821 106.623L1040 106.623" fill="#ffffff"/>
  <path d="M200.663 242.761L200.663 305.13L189.354 305.13L189.354 242.761L200.663 242.761M292.243 242.761L292.243 300.302Q292.243 301.52 291.786 302.564Q291.329 303.608 290.568 304.369Q289.807 305.13 288.763 305.565Q287.719 306 286.545 306L286.545 306Q285.501 306 284.436 305.608Q283.37 305.217 282.544 304.347L282.544 304.347L241.226 261.202L241.226 305.13L229.918 305.13L229.918 247.589Q229.918 245.849 230.896 244.436Q231.875 243.022 233.397 242.326L233.397 242.326Q235.006 241.674 236.702 242Q238.399 242.326 239.616 243.588L239.616 243.588L280.935 286.689L280.935 242.761L292.243 242.761M377.777 242.761L377.777 254.069L352.856 254.069L352.856 305.13L341.548 305.13L341.548 254.069L316.583 254.069L316.583 242.761L377.777 242.761M453.396 268.248L453.396 279.643L417.688 279.643L417.688 268.248L453.396 268.248M458.484 293.822L458.484 305.13L417.688 305.13Q415.339 305.13 412.556 304.304Q409.772 303.477 407.402 301.585Q405.032 299.693 403.444 296.671Q401.857 293.648 401.857 289.255L401.857 289.255L401.857 248.459Q401.857 247.285 402.292 246.241Q402.727 245.197 403.488 244.414Q404.249 243.631 405.293 243.196Q406.336 242.761 407.554 242.761L407.554 242.761L458.484 242.761L458.484 254.069L413.165 254.069L413.165 289.255Q413.165 291.473 414.339 292.648Q415.513 293.822 417.775 293.822L417.775 293.822L458.484 293.822M547.759 256.505L547.759 263.725Q547.759 267.596 546.802 270.64Q545.846 273.685 544.215 276.012Q542.584 278.338 540.453 279.991Q538.321 281.644 535.994 282.709Q533.668 283.775 531.297 284.253Q528.927 284.732 526.839 284.732L526.839 284.732L550.456 305.13L532.972 305.13L509.399 284.732L501.266 284.732L501.266 273.424L526.839 273.424Q528.97 273.25 530.732 272.532Q532.493 271.815 533.776 270.597Q535.059 269.379 535.755 267.661Q536.451 265.943 536.451 263.725L536.451 263.725L536.451 256.592Q536.451 255.635 536.212 255.135Q535.973 254.635 535.603 254.396Q535.233 254.156 534.82 254.113Q534.407 254.069 534.059 254.069L534.059 254.069L496.742 254.069L496.742 305.13L485.434 305.13L485.434 248.459Q485.434 247.285 485.869 246.241Q486.304 245.197 487.065 244.414Q487.826 243.631 488.87 243.196Q489.914 242.761 491.132 242.761L491.132 242.761L534.059 242.761Q537.843 242.761 540.453 244.131Q543.062 245.501 544.693 247.567Q546.324 249.633 547.042 252.025Q547.759 254.417 547.759 256.505L547.759 256.505M636.338 248.459L636.338 305.13L625.03 305.13L625.03 289.821L585.278 289.821L585.278 305.13L573.97 305.13L573.97 273.946Q573.97 267.117 576.318 261.376Q578.667 255.635 582.842 251.503Q587.018 247.372 592.715 245.066Q598.413 242.761 605.154 242.761L605.154 242.761L630.641 242.761Q631.815 242.761 632.859 243.196Q633.903 243.631 634.686 244.414Q635.469 245.197 635.904 246.241Q636.338 247.285 636.338 248.459L636.338 248.459M585.278 273.946L585.278 278.512L625.03 278.512L625.03 254.069L605.154 254.069Q604.632 254.069 602.958 254.222Q601.283 254.374 599.087 254.983Q596.89 255.592 594.455 256.853Q592.019 258.114 589.975 260.332Q587.931 262.551 586.604 265.878Q585.278 269.205 585.278 273.946L585.278 273.946M721.351 293.822L721.351 305.13L680.555 305.13Q678.989 305.13 677.184 304.76Q675.379 304.391 673.618 303.608Q671.856 302.825 670.247 301.585Q668.638 300.346 667.398 298.584Q666.159 296.823 665.419 294.496Q664.68 292.169 664.68 289.255L664.68 289.255L664.68 258.636Q664.68 257.07 665.05 255.266Q665.419 253.461 666.202 251.699Q666.985 249.938 668.246 248.328Q669.508 246.719 671.269 245.48Q673.031 244.24 675.336 243.501Q677.641 242.761 680.555 242.761L680.555 242.761L721.351 242.761L721.351 254.069L680.555 254.069Q678.337 254.069 677.162 255.244Q675.988 256.418 675.988 258.723L675.988 258.723L675.988 289.255Q675.988 291.43 677.184 292.626Q678.38 293.822 680.555 293.822L680.555 293.822L721.351 293.822M804.45 242.761L804.45 254.069L779.529 254.069L779.529 305.13L768.221 305.13L768.221 254.069L743.256 254.069L743.256 242.761L804.45 242.761M840.186 242.761L840.186 305.13L828.878 305.13L828.878 242.761L840.186 242.761M919.24 242.761L931.853 242.761L902.321 302.912Q901.625 304.304 900.255 305.152Q898.885 306 897.233 306L897.233 306Q895.623 306 894.253 305.152Q892.883 304.304 892.144 302.912L892.144 302.912L862.656 242.761L875.312 242.761L897.233 287.689L919.24 242.761M1005.557 268.248L1005.557 279.643L969.85 279.643L969.85 268.248L1005.557 268.248M1010.646 293.822L1010.646 305.13L969.85 305.13Q967.501 305.13 964.718 304.304Q961.934 303.477 959.564 301.585Q957.193 299.693 955.606 296.671Q954.018 293.648 954.018 289.255L954.018 289.255L954.018 248.459Q954.018 247.285 954.453 246.241Q954.888 245.197 955.649 244.414Q956.411 243.631 957.454 243.196Q958.498 242.761 959.716 242.761L959.716 242.761L1010.646 242.761L1010.646 254.069L965.327 254.069L965.327 289.255Q965.327 291.473 966.501 292.648Q967.675 293.822 969.937 293.822L969.937 293.822L1010.646 293.822" fill="#22d3c5"/>
</svg>